<svg xmlns="http://www.w3.org/2000/svg" viewBox="0 0 114.78 72.48"><defs><style>.cls-1{fill:#feaa4e;stroke:#f98e3d;stroke-miterlimit:10;stroke-width:8px;}</style></defs><g id="Слой_2" data-name="Слой 2"><g id="Слой_1-2" data-name="Слой 1"><path class="cls-1" d="M101.16,30.73H57.62a36.66,36.66,0,0,1-1.48-12.64A34.33,34.33,0,0,1,58.69,6.62a65.85,65.85,0,0,1,8.5-1.88A70.76,70.76,0,0,1,88.89,5a94.57,94.57,0,0,1,11.26,2.31,83.18,83.18,0,0,1,1.39,13.59A85.88,85.88,0,0,1,101.16,30.73Z"/><path class="cls-1" d="M58.3,30.73H14.76a37.17,37.17,0,0,1-1.48-12.64A34.52,34.52,0,0,1,15.84,6.62a65.85,65.85,0,0,1,8.5-1.88A70.76,70.76,0,0,1,46,5,94.57,94.57,0,0,1,57.3,7.29a82.21,82.21,0,0,1,1.38,13.59A81.55,81.55,0,0,1,58.3,30.73Z"/><path class="cls-1" d="M109.84,68.48H7.6A38.49,38.49,0,0,1,10.12,31.4c4.82-.92,11.68-2.06,20-2.89,22.05-2.21,39.4-.7,51,.37,6.82.63,15.85,1.69,26.45,3.56a86.39,86.39,0,0,1,3.25,20.89A85.59,85.59,0,0,1,109.84,68.48Z"/></g></g></svg>